<?xml version="1.0" encoding="utf-8"?>
<!-- Generator: Adobe Illustrator 25.4.1, SVG Export Plug-In . SVG Version: 6.00 Build 0)  -->
<svg version="1.1" id="Shape_7_00000006678260886044402470000002466783955273421184_"
	 xmlns="http://www.w3.org/2000/svg" xmlns:xlink="http://www.w3.org/1999/xlink" x="0px" y="0px" viewBox="0 0 710 716"
	 style="enable-background:new 0 0 710 716;" xml:space="preserve">
<style type="text/css">
	.st0{fill:#D02525;}
</style>
<g id="Shape_7">
	<path class="st0" d="M185.38,250.61c-1.35,13.08-1.15,26.22,0.02,39.3c0.1,32.9,5.94,65.36,11.67,97.63
		c5.53,22.46,10.01,45.56,21.39,65.99c5.04-11.04,1.53-23.2,0.43-34.66c-7.88-74.39-1-150.05,17.4-222.44
		c12.38-46.56,29.94-92.52,58.29-131.82c8.62-12.65,21.16-21.81,30.66-33.7c1.56-1.76,1.96-4.13,2.68-6.29
		c-39.73-7.21-79.15,17.33-98.55,51.2c-15.88,25.2-25.89,53.61-32.81,82.45C190.31,188.67,185.79,219.53,185.38,250.61z
		 M280.72,146.73c-25.81,50.48-39.3,106.38-45.78,162.46c-1.58,20.4-4.56,41.37,0.02,61.56c2.01-6.79,4.15-13.57,5.77-20.46
		c13.22-61.09,34.67-121.28,70.18-173.13c26.24-39.49,63.45-71.72,106.98-90.68c-9.78-8.42-22.9-12.12-35.47-14.02
		c-19.53-3.09-39.26,4.07-55.08,15.25C306.75,102.71,292.49,124.51,280.72,146.73z M398.87,144.24
		c-19.67,6.27-37.07,17.84-53.71,29.8c-29.78,22.99-48.94,56.59-64.33,90.29c-3.83,10.71-9.95,20.79-11.2,32.29
		c7.27-15.33,18.79-28.25,30.13-40.73c43.16-44.13,103.42-68.43,164.04-75.31c-7.41-12.77-15.94-25.87-29.19-33.19
		C423.99,140.74,410.54,140.62,398.87,144.24z M661.18,394.8c-12.32-47.23-39.07-91.97-79.7-119.95
		c-23.6-16.55-51.05-27.8-79.7-31.43c-40.63-5.76-83.16-2.31-121.29,13.43c-17.6,7.74-34.6,17.18-49.52,29.33
		c-1.01,1.28-1.88,3.35,2.2,4c38.69-1.81,77.86,3.2,114.45,16.15c19.3,6.95,38.54,14.96,54.95,27.55
		c6.16,5.35,13.39,11.08,14.51,19.78c-2.33,1.55-4.61,3.13-6.9,4.68c0.65,0.63,1.92,1.86,2.56,2.49
		c13.41,3.9,26.16,9.81,38.36,16.58c9.62,5.42,17.93,14.63,19.46,25.91c0.35,13.51-11.36,23.63-23.23,27.61
		c1.7-13.16-11.56-19.72-21.63-23.97c-28.27-10.26-58.76-12.73-88.64-12.28c-30.78,0.72-61.54,5.64-90.79,15.35
		c-26.76,9.22-52.99,23.26-73.28,43.28c-24.22,25.08-17.34,59.32-17.34,59.32c0,0.06,0,0.12,0,0.19c0.92,4.73,1.97,9.43,3.15,14.09
		c11.71,50.97,42.49,98.43,87.58,125.77c33.48,21.01,73.07,30.55,112.3,31.39c31.72,0.67,63.96-3.21,93.64-14.9
		c26.32-10.3,50.82-26.34,68.83-48.38c19.38-22.75,31.95-50.32,41.63-78.36c-33.98,0.18-67.99-0.55-101.95,0.35
		c-4.87,15.59-17.23,27.32-30.29,36.4c-18.46,13.26-41.57,18.41-64.06,17.6c-27.59,0.1-57.12-8.17-75.48-29.98
		c-17.66-21.05-23.15-49.58-24.09-76.36c100.98-0.02,201.95,0,302.93-0.02C671.82,458.38,669.35,425.87,661.18,394.8z
		 M483.38,345.67l-0.31-3.29c-12.06-12.63-30.05-16.1-46.67-18.07c0.08,0.74,0.25,2.23,0.35,2.98c7.39,3.56,12.94,9.89,20.18,13.67
		C465.1,345.61,475.01,341.32,483.38,345.67z M223.61,568.28c-28.41-34.68-52.42-72.76-74.07-111.98
		c-13.82-26.1-24.05-53.93-33.67-81.81c-10.72-27.2-16.6-55.9-21.9-84.57c-5.53-33.17-11.6-66.42-12.16-100.14
		c-2.87-23.52,0.84-47.33-2.09-70.84c-23.11,30-34.79,67.14-41,104.09c-3.27,25.59-4.38,51.5-2.84,77.27
		c3.4,28.8,7.33,57.82,16.29,85.51c6.37,22.5,15.27,44.15,23.58,65.99c14.51,33.78,34.34,65.03,56.33,94.38
		c27.41,32.82,59.38,62.58,97.08,83.22c23.41,11,48,22.38,74.44,22.07C276.89,623.79,247.6,598.49,223.61,568.28z M122.51,338.7
		c6.06,20.89,12.79,41.59,18.91,62.48c3.05,8.15,6.57,16.11,9.76,24.2c8.04,17.58,13.96,36.18,24.01,52.77
		c13.55,24.73,28.47,48.81,46.24,70.74c4.4,5.56,9.7,10.36,13.51,16.39c-0.94-8.52-4.4-16.45-7.65-24.28
		c-10.23-25.75-23.03-50.46-31.62-76.83c-3.52-13.75-7.76-27.28-11.26-41.02c-16.31-57.88-24.36-118.15-23.29-178.3
		c1.64-64.32,12.91-129.1,39.6-187.95c4.26-9.59,9.72-18.88,11.56-29.37c-5.85,0.57-11.54,2.1-16.78,4.7
		c-20.67,8.95-38.76,23.83-51.37,42.51c-17.72,25.53-26.69,55.94-32.09,86.25c-3.6,27.75-5.06,55.86-2.78,83.79
		C110.21,276.47,116.53,307.64,122.51,338.7z"/>
</g>
</svg>
