<?xml version="1.0" encoding="utf-8"?>
<!-- Generator: Adobe Illustrator 25.4.1, SVG Export Plug-In . SVG Version: 6.00 Build 0)  -->
<svg version="1.1" xmlns="http://www.w3.org/2000/svg" xmlns:xlink="http://www.w3.org/1999/xlink" x="0px" y="0px"
	 viewBox="0 0 1080 400" style="enable-background:new 0 0 1080 400;" xml:space="preserve">
<style type="text/css">
	.st0{enable-background:new    ;}
	.st1{fill:#D02525;}
</style>
<g id="llar">
	<g>
		<path d="M483.6,368.56h-56.03V66.48h56.03V368.56z"/>
		<path d="M580.16,368.56h-56.03V66.48h56.03V368.56z"/>
		<path d="M785.61,151.94h53.25v216.62h-53.25v-25.04c-18.68,20.27-41.73,30.21-69.15,30.21c-31,0-56.83-10.73-77.1-32.59
			s-30.2-49.29-30.2-81.88c0-32.59,10.33-59.62,30.6-80.69c20.27-21.46,46.1-32.2,76.7-32.2c27.02,0,50.07,10.33,69.15,31.4V151.94z
			 M768.92,215.93c-11.53-12.32-25.83-18.28-43.32-18.28c-17.88,0-32.19,5.96-43.71,18.28c-11.13,12.32-16.69,27.03-16.69,44.12
			c0,17.49,5.56,32.2,17.09,44.52c11.52,12.32,25.83,18.28,43.32,18.28c17.49,0,31.79-5.96,43.32-18.28
			c11.52-12.32,17.49-27.03,17.49-44.52C786.41,242.96,780.45,228.25,768.92,215.93z"/>
		<path d="M879.39,368.56V151.94h53.65v29.02c13.11-23.45,32.98-34.98,59.61-34.98c8.74,0,17.49,1.59,26.23,4.77l-4.77,53.66
			c-9.14-2.78-17.88-4.37-25.83-4.37c-31.79,0-52.85,20.67-52.85,65.58v102.95H879.39z"/>
	</g>
</g>
<g id="Shape_7_00000126313394569992468980000017288740953611103414_" class="st0">
	<g id="Shape_7">
		<path class="st1" d="M140.93,144.01c-0.72,6.94-0.61,13.92,0.01,20.86c0.05,17.47,3.16,34.7,6.2,51.83
			c2.94,11.92,5.32,24.19,11.36,35.03c2.68-5.86,0.81-12.32,0.23-18.4c-4.18-39.49-0.53-79.66,9.24-118.1
			c6.57-24.72,15.89-49.12,30.95-69.99c4.58-6.72,11.23-11.58,16.28-17.89c0.83-0.94,1.04-2.19,1.42-3.34
			c-21.1-3.83-42.03,9.2-52.32,27.19c-8.43,13.38-13.75,28.46-17.42,43.78C143.55,111.12,141.15,127.51,140.93,144.01z
			 M191.55,88.85c-13.7,26.8-20.87,56.48-24.3,86.26c-0.84,10.83-2.42,21.97,0.01,32.69c1.07-3.61,2.2-7.2,3.06-10.86
			c7.02-32.44,18.41-64.39,37.26-91.92c13.93-20.97,33.69-38.08,56.8-48.14c-5.19-4.47-12.16-6.44-18.83-7.44
			c-10.37-1.64-20.85,2.16-29.25,8.1C205.37,65.48,197.8,77.05,191.55,88.85z M107.55,190.78c3.22,11.09,6.79,22.08,10.04,33.17
			c1.62,4.32,3.49,8.56,5.18,12.85c4.27,9.34,7.41,19.21,12.75,28.02c7.19,13.13,15.12,25.92,24.55,37.56
			c2.34,2.95,5.15,5.5,7.17,8.7c-0.5-4.52-2.34-8.73-4.06-12.89c-5.43-13.67-12.23-26.79-16.79-40.79
			c-1.87-7.3-4.12-14.48-5.98-21.78c-8.66-30.73-12.94-62.73-12.36-94.67c0.87-34.15,6.85-68.54,21.02-99.79
			c2.26-5.09,5.16-10.02,6.14-15.59c-3.1,0.3-6.13,1.11-8.91,2.5c-10.97,4.75-20.58,12.65-27.27,22.57
			c-9.41,13.56-14.17,29.7-17.04,45.79c-1.91,14.73-2.69,29.66-1.47,44.48C101.02,157.74,104.38,174.29,107.55,190.78z
			 M254.28,87.53c-10.44,3.33-19.68,9.47-28.52,15.82c-15.81,12.2-25.99,30.04-34.16,47.94c-2.03,5.69-5.28,11.04-5.95,17.14
			c3.86-8.14,9.98-15,16-21.62c22.91-23.43,54.91-36.33,87.09-39.98c-3.93-6.78-8.46-13.73-15.5-17.62
			C267.62,85.67,260.48,85.61,254.28,87.53z M299.15,194.48l-0.17-1.75c-6.41-6.71-15.96-8.55-24.78-9.6
			c0.04,0.4,0.14,1.19,0.19,1.58c3.92,1.89,6.87,5.25,10.71,7.26C289.44,194.45,294.7,192.17,299.15,194.48z M161.23,312.67
			c-15.08-18.41-27.83-38.63-39.33-59.46c-7.34-13.86-12.77-28.63-17.88-43.43c-5.69-14.44-8.81-29.68-11.63-44.9
			c-2.94-17.61-6.16-35.26-6.46-53.17c-1.53-12.49,0.45-25.13-1.11-37.61c-12.27,15.93-18.47,35.65-21.77,55.27
			c-1.73,13.59-2.33,27.34-1.51,41.02c1.81,15.29,3.89,30.7,8.65,45.4c3.38,11.95,8.11,23.44,12.52,35.03
			c7.7,17.93,18.23,34.53,29.91,50.11c14.56,17.42,31.53,33.23,51.55,44.18c12.43,5.84,25.49,11.88,39.52,11.72
			C189.52,342.14,173.96,328.71,161.23,312.67z M393.55,220.56c-6.54-25.08-20.74-48.83-42.32-63.69
			c-12.53-8.78-27.11-14.76-42.32-16.69c-21.57-3.06-44.15-1.23-64.4,7.13c-9.35,4.11-18.38,9.13-26.3,15.59
			c-0.53,0.68-0.97,1.77,1.2,2.11c20.53-0.96,41.33,1.7,60.75,8.57c10.25,3.69,20.46,7.94,29.17,14.63c3.27,2.84,7.11,5.88,7.7,10.5
			c-1.24,0.82-2.45,1.66-3.66,2.48c0.34,0.33,1.02,0.99,1.36,1.32c7.12,2.07,13.89,5.21,20.37,8.81c5.11,2.88,9.52,7.77,10.33,13.75
			c0.19,7.17-6.03,12.55-12.33,14.66c0.9-6.99-6.14-10.47-11.48-12.72c-15.01-5.45-31.2-6.76-47.06-6.52
			c-16.34,0.38-32.67,2.99-48.2,8.15c-14.3,4.93-28.3,12.45-39.1,23.18c-12.63,13.3-9.01,31.29-9.01,31.29c0,0.03,0,0.06,0,0.09
			c0.49,2.51,1.05,5.01,1.67,7.48c6.22,27.06,22.56,52.26,46.5,66.77c17.77,11.15,38.8,16.22,59.62,16.66
			c16.84,0.35,33.96-1.7,49.72-7.91c13.97-5.47,26.98-13.98,36.54-25.69c10.29-12.08,16.96-26.72,22.1-41.6
			c-18.04,0.09-36.1-0.29-54.13,0.19c-2.59,8.28-9.15,14.5-16.08,19.33c-9.8,7.04-22.07,9.77-34.01,9.35
			c-14.65,0.05-30.33-4.34-40.07-15.92c-9.37-11.18-12.29-26.32-12.79-40.54c53.61-0.01,107.22,0,160.83-0.01
			C399.2,254.32,397.89,237.06,393.55,220.56z"/>
	</g>
</g>
</svg>
